<svg id="Layer_1" data-name="Layer 1" xmlns="http://www.w3.org/2000/svg" viewBox="0 0 306.1 300.5"><defs><style>.cls-1{fill:#333;}.cls-2{fill:none;stroke:#fff;stroke-miterlimit:10;stroke-width:9px;}.cls-3{fill:#fff;}</style></defs><title>tattoo machine</title><rect class="cls-1" width="300.5" height="300.5"/><path class="cls-2" d="M205.5,94.5c15.88-3.15,35.19-9.36,42.43-22.83,7.72-14.33-4.07-26,2.93-39.64,4.57-8.9,17.38-19.09,54.14-24" transform="translate(0.5 0.5)"/><rect class="cls-3" x="100.56" y="140.11" width="11.83" height="90" transform="translate(-99.21 130) rotate(-45)"/><rect class="cls-3" x="113.35" y="126.61" width="13.24" height="90" transform="translate(-85.71 135.6) rotate(-45)"/><path class="cls-3" d="M254,134.63,167.29,47.92a7.5,7.5,0,0,0-10.6,10.61l12.9,12.9-5,5-8.3-8.31L123,101.39l26.16,26.17,33.24-33.24-7.25-7.24,5-5,31.29,31.29-5,5-7.78-7.78-33.23,33.23L191.6,170l33.23-33.23L217.06,129l5-5L238.18,140l-47.11,47.11L109.8,105.87a7.32,7.32,0,0,0-10.35,0l-.25.25a7.32,7.32,0,0,0,0,10.35l6.26,6.27a13.73,13.73,0,0,0-1.62,1.36l-6.37,6.37,63.64,63.64,6.37-6.37a13.73,13.73,0,0,0,1.36-1.62l15.59,15.58a7.65,7.65,0,0,0,1.16,1.52,7.47,7.47,0,0,0,4,2.08,7.28,7.28,0,0,0,6.78-2l.26-.25a7.43,7.43,0,0,0,1.14-1.5L254,145.41a7.7,7.7,0,0,0,0-10.78Z" transform="translate(0.5 0.5)"/><path class="cls-3" d="M65.83,162.11l-7.09,7.09a13.11,13.11,0,0,0,0,18.54l14.77,14.77-17,17L33.92,257.67,72.1,235h0l17-17,14.77,14.77a13.11,13.11,0,0,0,18.54,0l7.09-7.09Z" transform="translate(0.5 0.5)"/></svg>